<?xml version="1.0" encoding="UTF-8"?>
<svg version="1.1" xmlns="http://www.w3.org/2000/svg" width="575" height="575">
<path d="M0 0 C189.75 0 379.5 0 575 0 C575 189.75 575 379.5 575 575 C385.25 575 195.5 575 0 575 C0 385.25 0 195.5 0 0 Z " fill="#FE9800" transform="translate(0,0)"/>
<path d="M0 0 C189.75 0 379.5 0 575 0 C575 189.75 575 379.5 575 575 C385.25 575 195.5 575 0 575 C0 385.25 0 195.5 0 0 Z M281.03125 8.75390625 C279.48244141 9.65302734 279.48244141 9.65302734 277.90234375 10.5703125 C276.21818359 11.55644531 276.21818359 11.55644531 274.5 12.5625 C273.32448406 13.24654988 272.14869853 13.93013667 270.97265625 14.61328125 C268.52629074 16.03482132 266.08110537 17.45836082 263.63671875 18.88330078 C258.10195007 22.10757154 252.55018668 25.3023703 247 28.5 C244.8332519 29.74985884 242.66658552 30.99985936 240.5 32.25 C97.5 114.75 97.5 114.75 94.24560547 116.62744141 C92.0934787 117.86911527 89.94145927 119.11097522 87.78955078 120.35302734 C82.74969023 123.26166823 77.70882508 126.16851898 72.66400146 129.06854248 C70.88250422 130.09275665 69.10135678 131.11757651 67.3203125 132.14257812 C65.08923375 133.42633375 62.85750427 134.70895939 60.625 135.99023438 C59.61179687 136.57353516 58.59859375 137.15683594 57.5546875 137.7578125 C56.67280762 138.2645752 55.79092773 138.77133789 54.88232422 139.29345703 C53.93115723 139.85661621 52.97999023 140.41977539 52 141 C51.34210088 141.28597481 50.68420177 141.57194961 50.00636631 141.86659032 C47.62969678 143.03287358 45.88367173 144.1297195 44 146 C42.7766023 149.70873795 42.88120641 153.32275063 42.92356873 157.201828 C42.8953237 158.91887002 42.8953237 158.91887002 42.86650807 160.67059976 C42.81342109 164.51564842 42.81773806 168.35847559 42.82202148 172.20385742 C42.80079684 174.95689873 42.76783019 177.70977447 42.73573303 180.46270752 C42.66543775 187.17046414 42.63972539 193.87767828 42.63180899 200.58577254 C42.62527242 206.03997958 42.60646569 211.49400392 42.57902718 216.94814491 C42.50281812 232.4178773 42.46130032 247.88716798 42.46247398 263.35708924 C42.46253091 264.19098075 42.46258783 265.02487226 42.46264648 265.8840332 C42.46271122 266.71894534 42.46277595 267.55385748 42.46284265 268.41406999 C42.46173957 281.93905717 42.37734111 295.46208228 42.2553184 308.98646923 C42.13096822 322.87917845 42.07025432 336.77092661 42.07513291 350.66420633 C42.07653898 358.46217568 42.05167988 366.25801037 41.95806694 374.05547142 C41.87880146 380.69665184 41.85866488 387.33478883 41.91437101 393.97626355 C41.94110715 397.36524906 41.93158483 400.74357473 41.86584091 404.13274574 C41.03889852 417.2804897 41.03889852 417.2804897 45.66271901 429.03743005 C49.66463814 432.38865412 54.04754443 434.413899 58.92014611 436.19403231 C61.985546 437.38191059 64.63333316 439.01347148 67.43359375 440.73046875 C69.43446621 441.88355831 71.43577394 443.03589289 73.4375 444.1875 C75.68620951 445.4830528 77.93490708 446.77862632 80.18359375 448.07421875 C81.31265137 448.72438965 82.44170898 449.37456055 83.60498047 450.04443359 C89.0716998 453.19332054 94.53574887 456.34683264 100 459.5 C102.16665311 460.7500235 104.33331979 462.00002347 106.5 463.25 C145.5 485.75 184.5 508.25 223.5 530.75 C224.5732251 531.36915283 225.6464502 531.98830566 226.75219727 532.6262207 C228.91159395 533.8720577 231.07093669 535.11798818 233.23022461 536.36401367 C238.75767597 539.55348953 244.28615121 542.74116885 249.81640625 545.92578125 C250.93700439 546.57168213 252.05760254 547.21758301 253.2121582 547.88305664 C255.41905161 549.15399438 257.62719326 550.42276747 259.83666992 551.68920898 C264.67969496 554.47168885 269.49377488 557.28019408 274.234375 560.234375 C275.0173999 560.71672607 275.8004248 561.19907715 276.60717773 561.69604492 C278.02796593 562.57638939 279.43983376 563.47138111 280.84008789 564.3840332 C282.88433766 565.70184098 282.88433766 565.70184098 286 567 C289.70671224 565.86367188 292.98775265 563.98604775 296.359375 562.09375 C297.38345459 561.52019775 298.40753418 560.94664551 299.46264648 560.35571289 C300.54747314 559.74332764 301.6322998 559.13094238 302.75 558.5 C303.87672119 557.86634521 305.00344238 557.23269043 306.16430664 556.57983398 C312.95517743 552.74999436 319.70984746 548.86664399 326.4152832 544.8894043 C332.72724525 541.14695337 339.07941601 537.47596521 345.4375 533.8125 C346.54472412 533.17449463 347.65194824 532.53648926 348.79272461 531.87915039 C351.06337068 530.57110523 353.33412358 529.26324552 355.60498047 527.95556641 C361.0716998 524.80667946 366.53574887 521.65316736 372 518.5 C374.16665311 517.2499765 376.33331979 515.99997653 378.5 514.75 C379.5725 514.13125 380.645 513.5125 381.75 512.875 C469.5 462.25 469.5 462.25 472.75268555 460.37353516 C474.91049803 459.12858718 477.06821353 457.8834711 479.22583008 456.63818359 C484.77716592 453.43447349 490.33036541 450.2340637 495.88671875 447.0390625 C497.02560547 446.38357422 498.16449219 445.72808594 499.33789062 445.05273438 C501.47787488 443.8211516 503.61844226 442.59058114 505.75976562 441.36132812 C507.71678143 440.23448428 509.65915135 439.08169121 511.58350277 437.89993 C514.10165114 436.49957598 516.15524207 435.54421063 518.81720066 434.61144543 C523.27627091 432.85356293 527.05012914 430.87348084 530 427 C533.0046298 418.66432339 532.14383888 409.12700282 532.08374023 400.40551758 C532.11063751 397.65820891 532.15965721 394.91138604 532.2071991 392.16436768 C532.30840743 385.48478158 532.32762373 378.80740319 532.31523465 372.12715337 C532.30594482 366.69387297 532.32268138 361.26127133 532.35768318 355.8281002 C532.36759537 354.26017609 532.37750612 352.69225197 532.38741547 351.12432784 C532.39235581 350.34379381 532.39729615 349.56325979 532.4023862 348.75907322 C532.49164536 334.01031745 532.48211259 319.26282342 532.44332368 304.51393285 C532.41110924 291.04266738 532.507255 277.5758797 532.66369974 264.10559992 C532.82333108 250.25315597 532.89328038 236.40284307 532.8681789 222.54946631 C532.85573713 214.77977842 532.8784984 207.01409899 532.99600029 199.24518776 C533.09517711 192.62798912 533.10942595 186.01708879 533.01673102 179.39968918 C532.9717325 176.02306541 532.97719582 172.66749073 533.06280518 169.29024315 C533.45415567 157.29787199 533.45415567 157.29787199 530 146 C524.08135772 139.92895568 516.48832364 136.48018571 508.77818596 133.20706022 C505.28193381 131.68801616 502.13236147 129.86539168 498.8828125 127.87890625 C496.96389348 126.77282692 495.04463128 125.66734273 493.125 124.5625 C490.94009462 123.30340198 488.75519908 122.04428689 486.5703125 120.78515625 C484.94270996 119.84760498 484.94270996 119.84760498 483.28222656 118.89111328 C477.85340058 115.76319852 472.42680719 112.63141552 467 109.5 C464.83334417 108.24998121 462.6666775 106.99998122 460.5 105.75 C421.5 83.25 382.5 60.75 343.5 38.25 C342.42621094 37.6305249 341.35242188 37.0110498 340.24609375 36.37280273 C338.0923828 35.13023981 335.93873633 33.88756511 333.78515625 32.64477539 C328.76315738 29.74685377 323.74057193 26.84996651 318.71557617 23.95724487 C316.94954478 22.94052802 315.18372569 21.92344342 313.41796875 20.90625 C311.21265845 19.63599127 309.00695784 18.36640982 306.80078125 17.09765625 C301.13585991 13.83361706 295.51676466 10.51571108 289.9609375 7.06860352 C286.24550753 5.04389772 284.46066413 6.75270878 281.03125 8.75390625 Z " fill="#FEFEFE" transform="translate(0,0)"/>
<path d="M0 0 C1.26191162 0.66056396 1.26191162 0.66056396 2.54931641 1.33447266 C3.83273926 2.00446289 3.83273926 2.00446289 5.14208984 2.68798828 C6.05506836 3.20039063 6.96804688 3.71279297 7.90869141 4.24072266 C8.932771 4.8142749 9.95685059 5.38782715 11.01196289 5.97875977 C12.09678955 6.59114502 13.18161621 7.20353027 14.29931641 7.83447266 C15.4260376 8.46812744 16.55275879 9.10178223 17.71362305 9.75463867 C24.50449383 13.58447829 31.25916387 17.46782867 37.96459961 21.44506836 C44.27656166 25.18751929 50.62873242 28.85850744 56.98681641 32.52197266 C58.64765259 33.47898071 58.64765259 33.47898071 60.34204102 34.45532227 C62.61268708 35.76336742 64.88343998 37.07122714 67.15429688 38.37890625 C72.6210162 41.52779319 78.08506528 44.68130529 83.54931641 47.83447266 C85.71596952 49.08449616 87.8826362 50.33449612 90.04931641 51.58447266 C120.38264974 69.08447266 150.71598307 86.58447266 181.04931641 104.08447266 C182.12270264 104.70370605 183.19608887 105.32293945 184.30200195 105.9609375 C186.45981443 107.20588547 188.61752993 108.45100156 190.77514648 109.69628906 C196.32648233 112.89999916 201.87968182 116.10040896 207.43603516 119.29541016 C208.57492187 119.95089844 209.71380859 120.60638672 210.88720703 121.28173828 C213.02719128 122.51332106 215.16775867 123.74389151 217.30908203 124.97314453 C219.26609784 126.09998838 221.20846776 127.25278145 223.13281918 128.43454266 C225.65096755 129.83489668 227.70455847 130.79026202 230.36651707 131.72302723 C234.82558732 133.48090973 238.59944555 135.46099182 241.54931641 139.33447266 C244.55394621 147.67014926 243.69315528 157.20746984 243.63305664 165.92895508 C243.65995392 168.67626374 243.70897362 171.42308661 243.7565155 174.17010498 C243.85772384 180.84969107 243.87694013 187.52706947 243.86455106 194.20731928 C243.85526122 199.64059968 243.87199779 205.07320132 243.90699959 210.50637245 C243.91691177 212.07429656 243.92682253 213.64222069 243.93673187 215.21014482 C243.94414238 216.38094585 243.94414238 216.38094585 243.9517026 217.57539944 C244.04096177 232.32415521 244.031429 247.07164923 243.99264009 261.82053981 C243.96042565 275.29180528 244.05657141 288.75859296 244.21301614 302.22887274 C244.37264749 316.08131669 244.44259678 329.93162958 244.41749531 343.78500634 C244.40505353 351.55469424 244.42781481 359.32037367 244.5453167 367.0892849 C244.64449351 373.70648353 244.65874236 380.31738387 244.56604742 386.93478348 C244.52104891 390.31140724 244.52651223 393.66698193 244.61212158 397.04422951 C245.00086367 413.5430964 245.00086367 413.5430964 241.54931641 420.33447266 C235.63067413 426.40551697 228.03764004 429.85428695 220.32750237 433.12741244 C216.83125022 434.6464565 213.68167788 436.46908098 210.43212891 438.45556641 C208.51320989 439.56164573 206.59394768 440.66712993 204.67431641 441.77197266 C202.48941103 443.03107067 200.30451548 444.29018576 198.11962891 445.54931641 C197.03456055 446.17435059 195.94949219 446.79938477 194.83154297 447.44335938 C189.40271698 450.57127414 183.97612359 453.70305713 178.54931641 456.83447266 C176.38266058 458.08449145 174.21599391 459.33449144 172.04931641 460.58447266 C170.97681641 461.20322266 169.90431641 461.82197266 168.79931641 462.45947266 C55.04931641 528.08447266 55.04931641 528.08447266 51.79541016 529.96166992 C49.64169921 531.20423285 47.48805274 532.44690754 45.33447266 533.68969727 C40.31247379 536.58761889 35.28988833 539.48450615 30.26489258 542.37722778 C28.49886119 543.39394464 26.73304209 544.41102924 24.96728516 545.42822266 C22.76197486 546.69848139 20.55627424 547.96806284 18.35009766 549.23681641 C17.34333984 549.81689453 16.33658203 550.39697266 15.29931641 550.99462891 C14.33380859 551.54650879 13.36830078 552.09838867 12.37353516 552.66699219 C10.4733755 553.78888797 8.60042705 554.95805222 6.75634766 556.16992188 C5.88365234 556.73855957 5.01095703 557.30719727 4.11181641 557.89306641 C3.34998047 558.41054443 2.58814453 558.92802246 1.80322266 559.46118164 C-0.45068359 560.33447266 -0.45068359 560.33447266 -2.90087891 559.66870117 C-3.74231445 559.22840576 -4.58375 558.78811035 -5.45068359 558.33447266 C-6.73410645 557.66448242 -6.73410645 557.66448242 -8.04345703 556.98095703 C-8.95643555 556.46855469 -9.86941406 555.95615234 -10.81005859 555.42822266 C-12.34617798 554.56789429 -12.34617798 554.56789429 -13.91333008 553.69018555 C-14.99815674 553.07780029 -16.0829834 552.46541504 -17.20068359 551.83447266 C-18.32740479 551.20081787 -19.45412598 550.56716309 -20.61499023 549.91430664 C-27.40586102 546.08446702 -34.16053105 542.20111665 -40.8659668 538.22387695 C-47.17792885 534.48142603 -53.53009961 530.81043787 -59.88818359 527.14697266 C-60.99540771 526.50896729 -62.10263184 525.87096191 -63.2434082 525.21362305 C-65.51405427 523.90557789 -67.78480717 522.59771818 -70.05566406 521.29003906 C-75.52238339 518.14115212 -80.98643246 514.98764002 -86.45068359 511.83447266 C-88.6173367 510.58444916 -90.78400339 509.33444919 -92.95068359 508.08447266 C-123.28401693 490.58447266 -153.61735026 473.08447266 -183.95068359 455.58447266 C-185.02406982 454.96523926 -186.09745605 454.34600586 -187.20336914 453.70800781 C-189.36118162 452.46305984 -191.51889712 451.21794376 -193.67651367 449.97265625 C-199.22784952 446.76894615 -204.78104901 443.56853635 -210.33740234 440.37353516 C-211.47628906 439.71804688 -212.61517578 439.06255859 -213.78857422 438.38720703 C-215.92855847 437.15562426 -218.06912585 435.9250538 -220.21044922 434.69580078 C-222.16746503 433.56895694 -224.10983495 432.41616386 -226.03418636 431.23440266 C-228.55233473 429.83404864 -230.60592566 428.87868329 -233.26788425 427.94591808 C-237.7269545 426.18803558 -241.50081274 424.20795349 -244.45068359 420.33447266 C-247.4553134 411.99879605 -246.59452247 402.46147547 -246.53442383 393.73999023 C-246.5613211 390.99268157 -246.61034081 388.2458587 -246.65788269 385.49884033 C-246.75909103 378.81925424 -246.77830732 372.14187585 -246.76591825 365.46162603 C-246.75662841 360.02834563 -246.77336497 354.59574399 -246.80836678 349.16257286 C-246.81827896 347.59464875 -246.82818972 346.02672463 -246.83809906 344.45880049 C-246.84550957 343.28799946 -246.84550957 343.28799946 -246.85306979 342.09354588 C-246.94232895 327.34479011 -246.93279619 312.59729608 -246.89400727 297.8484055 C-246.86179283 284.37714004 -246.95793859 270.91035236 -247.11438333 257.44007257 C-247.27401468 243.58762862 -247.34396397 229.73731573 -247.3188625 215.88393897 C-247.30642072 208.11425108 -247.32918199 200.34857164 -247.44668388 192.57966042 C-247.5458607 185.96246178 -247.56010954 179.35156145 -247.46741461 172.73416183 C-247.42241609 169.35753807 -247.42787942 166.00196339 -247.51348877 162.62471581 C-247.90223085 146.12584891 -247.90223085 146.12584891 -244.45068359 139.33447266 C-238.53204132 133.26342834 -230.93900723 129.81465837 -223.22886956 126.54153287 C-219.73261741 125.02248881 -216.58304506 123.19986434 -213.33349609 121.21337891 C-211.41457707 120.10729958 -209.49531487 119.00181538 -207.57568359 117.89697266 C-205.39077821 116.63787464 -203.20588267 115.37875955 -201.02099609 114.11962891 C-199.93592773 113.49459473 -198.85085937 112.86956055 -197.73291016 112.22558594 C-192.30408421 109.0976712 -186.87746353 105.96593535 -181.45068359 102.83447266 C-174.92835085 99.07083346 -168.40554597 95.30802644 -161.88037109 91.54931641 C-151.4286216 85.52699937 -140.98768811 79.48777928 -130.57568359 73.39697266 C-121.30504429 67.97488567 -111.99131661 62.63123254 -102.66021729 57.3142395 C-94.5636043 52.69963188 -86.49284611 48.04353841 -78.45068359 43.33447266 C-69.85550908 38.30257381 -61.22749092 33.33070691 -52.57568359 28.39697266 C-43.14800308 23.02012368 -33.72850268 17.62970671 -24.32568359 12.20947266 C-23.27783691 11.60627197 -22.22999023 11.00307129 -21.15039062 10.3815918 C-20.15378418 9.80658936 -19.15717773 9.23158691 -18.13037109 8.63916016 C-17.17743164 8.09356445 -16.22449219 7.54796875 -15.24267578 6.98583984 C-13.35648271 5.87022162 -11.49744886 4.70756451 -9.66650391 3.50341797 C-8.35697754 2.65021973 -8.35697754 2.65021973 -7.02099609 1.77978516 C-6.25803223 1.26174316 -5.49506836 0.74370117 -4.70898438 0.20996094 C-2.45068359 -0.66552734 -2.45068359 -0.66552734 0 0 Z M-7.41943359 57.08837891 C-8.96824219 57.9875 -8.96824219 57.9875 -10.54833984 58.90478516 C-12.2325 59.89091797 -12.2325 59.89091797 -13.95068359 60.89697266 C-15.12619953 61.58102254 -16.30198506 62.26460932 -17.47802734 62.94775391 C-19.92439286 64.36929398 -22.36957822 65.79283348 -24.81396484 67.21777344 C-30.34873378 70.44204434 -35.90052465 73.6367944 -41.45068359 76.83447266 C-43.61481652 78.08304852 -45.77887875 79.33174692 -47.94287109 80.58056641 C-52.30133747 83.09516701 -56.6608055 85.60801927 -61.02099609 88.11962891 C-71.51300453 94.16502424 -81.99550035 100.22557484 -92.45068359 106.33447266 C-103.99797875 113.0814846 -115.57970387 119.76786583 -127.16845703 126.44335938 C-132.59728304 129.57127415 -138.02386301 132.70308032 -143.45068359 135.83447266 C-145.60171988 137.0753674 -147.75276156 138.31625279 -149.90380859 139.55712891 C-153.81354124 141.81269863 -157.72296965 144.06879369 -161.63195801 146.32565308 C-163.36705087 147.32738659 -165.10221616 148.32899455 -166.83740234 149.33056641 C-168.99119028 150.57380985 -171.14484831 151.81727838 -173.29833984 153.06103516 C-181.00320868 157.50807359 -188.72646254 161.92063205 -196.45068359 166.33447266 C-196.45068359 241.24447266 -196.45068359 316.15447266 -196.45068359 393.33447266 C-184.07568359 400.26447266 -184.07568359 400.26447266 -171.45068359 407.33447266 C-158.32469903 414.96266264 -158.32469903 414.96266264 -153.54833984 417.76806641 C-147.20021793 421.48782149 -140.82709317 425.16347919 -134.45068359 428.83447266 C-126.14243626 433.61899822 -117.85069625 438.43020993 -109.57568359 443.27197266 C-100.89811487 448.34731458 -92.184627 453.35706085 -83.45068359 458.33447266 C-73.73608333 463.87075379 -64.05416819 469.45960896 -54.40356445 475.10693359 C-45.86368844 480.10221022 -37.30056903 485.05662354 -28.71508789 489.97314453 C-23.83535522 492.77322845 -18.98347724 495.59692073 -14.20849609 498.57275391 C-13.42659912 499.05454102 -12.64470215 499.53632813 -11.83911133 500.03271484 C-10.42001368 500.91235075 -9.00979819 501.80656218 -7.61108398 502.71826172 C-5.56642177 504.03626551 -5.56642177 504.03626551 -2.45068359 505.33447266 C1.0139815 504.25890547 4.07790049 502.57270055 7.22509766 500.78759766 C8.12268799 500.27986816 9.02027832 499.77213867 9.94506836 499.24902344 C11.38885864 498.4250708 11.38885864 498.4250708 12.86181641 497.58447266 C13.87655029 497.00810059 14.89128418 496.43172852 15.93676758 495.83789062 C25.1274042 490.60406864 34.26119855 485.27423223 43.38916016 479.93212891 C52.98873879 474.3176859 62.63067592 468.77646946 72.26708984 463.22558594 C77.69591583 460.09767117 83.12250922 456.96588818 88.54931641 453.83447266 C90.71597223 452.58445387 92.8826389 451.33445387 95.04931641 450.08447266 C96.12181641 449.46572266 97.19431641 448.84697266 98.29931641 448.20947266 C108.04931641 442.58447266 108.04931641 442.58447266 111.29980469 440.70922852 C113.46488711 439.46011748 115.62992623 438.21093136 117.79492188 436.96166992 C123.23547346 433.82244956 128.67678856 430.68456703 134.11962891 427.54931641 C145.74592023 420.85015226 157.3611417 414.133644 168.93261719 407.34008789 C177.08453627 402.56710779 185.31111488 397.96846101 193.54931641 393.33447266 C193.54931641 318.42447266 193.54931641 243.51447266 193.54931641 166.33447266 C185.29931641 161.71447266 177.04931641 157.09447266 168.54931641 152.33447266 C155.40075182 144.69316025 155.40075182 144.69316025 150.63916016 141.89697266 C144.33361221 138.20233955 138.00637204 134.54594584 131.67431641 130.89697266 C130.5941626 130.27443604 129.51400879 129.65189941 128.40112305 129.01049805 C126.21135307 127.74870439 124.02149286 126.48706732 121.83154297 125.22558594 C115.32060384 121.47419242 108.81268447 117.71756271 102.30419922 113.96191406 C96.86346304 110.8226502 91.42200164 107.68465769 85.97900391 104.54931641 C74.50136579 97.93601063 63.03965201 91.29696018 51.60327148 84.61254883 C43.0288236 79.60460797 34.42842733 74.64231275 25.82080078 69.69165039 C20.93159527 66.87648399 16.05075374 64.05031802 11.20166016 61.16650391 C10.40622803 60.69374023 9.6107959 60.22097656 8.79125977 59.73388672 C7.34046118 58.86874754 5.89189503 57.99984894 4.44604492 57.12646484 C-0.92209109 53.92313384 -2.0982293 53.98324778 -7.41943359 57.08837891 Z " fill="#FDFDFD" transform="translate(288.45068359375,6.66552734375)"/>
<path d="M0 0 C1.26191162 0.66056396 1.26191162 0.66056396 2.54931641 1.33447266 C3.83273926 2.00446289 3.83273926 2.00446289 5.14208984 2.68798828 C6.05506836 3.20039063 6.96804688 3.71279297 7.90869141 4.24072266 C8.932771 4.8142749 9.95685059 5.38782715 11.01196289 5.97875977 C12.09678955 6.59114502 13.18161621 7.20353027 14.29931641 7.83447266 C15.4260376 8.46812744 16.55275879 9.10178223 17.71362305 9.75463867 C24.50449383 13.58447829 31.25916387 17.46782867 37.96459961 21.44506836 C44.27656166 25.18751929 50.62873242 28.85850744 56.98681641 32.52197266 C58.64765259 33.47898071 58.64765259 33.47898071 60.34204102 34.45532227 C62.61268708 35.76336742 64.88343998 37.07122714 67.15429688 38.37890625 C72.6210162 41.52779319 78.08506528 44.68130529 83.54931641 47.83447266 C85.71596952 49.08449616 87.8826362 50.33449612 90.04931641 51.58447266 C120.38264974 69.08447266 150.71598307 86.58447266 181.04931641 104.08447266 C182.12270264 104.70370605 183.19608887 105.32293945 184.30200195 105.9609375 C186.45981443 107.20588547 188.61752993 108.45100156 190.77514648 109.69628906 C196.32648233 112.89999916 201.87968182 116.10040896 207.43603516 119.29541016 C208.57492187 119.95089844 209.71380859 120.60638672 210.88720703 121.28173828 C213.02719128 122.51332106 215.16775867 123.74389151 217.30908203 124.97314453 C219.26609784 126.09998838 221.20846776 127.25278145 223.13281918 128.43454266 C225.65096755 129.83489668 227.70455847 130.79026202 230.36651707 131.72302723 C234.82558732 133.48090973 238.59944555 135.46099182 241.54931641 139.33447266 C244.55394621 147.67014926 243.69315528 157.20746984 243.63305664 165.92895508 C243.65995392 168.67626374 243.70897362 171.42308661 243.7565155 174.17010498 C243.85772384 180.84969107 243.87694013 187.52706947 243.86455106 194.20731928 C243.85526122 199.64059968 243.87199779 205.07320132 243.90699959 210.50637245 C243.91691177 212.07429656 243.92682253 213.64222069 243.93673187 215.21014482 C243.94414238 216.38094585 243.94414238 216.38094585 243.9517026 217.57539944 C244.04096177 232.32415521 244.031429 247.07164923 243.99264009 261.82053981 C243.96042565 275.29180528 244.05657141 288.75859296 244.21301614 302.22887274 C244.37264749 316.08131669 244.44259678 329.93162958 244.41749531 343.78500634 C244.40505353 351.55469424 244.42781481 359.32037367 244.5453167 367.0892849 C244.64449351 373.70648353 244.65874236 380.31738387 244.56604742 386.93478348 C244.52104891 390.31140724 244.52651223 393.66698193 244.61212158 397.04422951 C245.00086367 413.5430964 245.00086367 413.5430964 241.54931641 420.33447266 C235.63067413 426.40551697 228.03764004 429.85428695 220.32750237 433.12741244 C216.83125022 434.6464565 213.68167788 436.46908098 210.43212891 438.45556641 C208.51320989 439.56164573 206.59394768 440.66712993 204.67431641 441.77197266 C202.48941103 443.03107067 200.30451548 444.29018576 198.11962891 445.54931641 C197.03456055 446.17435059 195.94949219 446.79938477 194.83154297 447.44335938 C189.40271698 450.57127414 183.97612359 453.70305713 178.54931641 456.83447266 C176.38266058 458.08449145 174.21599391 459.33449144 172.04931641 460.58447266 C170.97681641 461.20322266 169.90431641 461.82197266 168.79931641 462.45947266 C55.04931641 528.08447266 55.04931641 528.08447266 51.79541016 529.96166992 C49.64169921 531.20423285 47.48805274 532.44690754 45.33447266 533.68969727 C40.31247379 536.58761889 35.28988833 539.48450615 30.26489258 542.37722778 C28.49886119 543.39394464 26.73304209 544.41102924 24.96728516 545.42822266 C22.76197486 546.69848139 20.55627424 547.96806284 18.35009766 549.23681641 C17.34333984 549.81689453 16.33658203 550.39697266 15.29931641 550.99462891 C14.33380859 551.54650879 13.36830078 552.09838867 12.37353516 552.66699219 C10.4733755 553.78888797 8.60042705 554.95805222 6.75634766 556.16992188 C5.88365234 556.73855957 5.01095703 557.30719727 4.11181641 557.89306641 C3.34998047 558.41054443 2.58814453 558.92802246 1.80322266 559.46118164 C-0.45068359 560.33447266 -0.45068359 560.33447266 -2.90087891 559.66870117 C-3.74231445 559.22840576 -4.58375 558.78811035 -5.45068359 558.33447266 C-6.73410645 557.66448242 -6.73410645 557.66448242 -8.04345703 556.98095703 C-8.95643555 556.46855469 -9.86941406 555.95615234 -10.81005859 555.42822266 C-12.34617798 554.56789429 -12.34617798 554.56789429 -13.91333008 553.69018555 C-14.99815674 553.07780029 -16.0829834 552.46541504 -17.20068359 551.83447266 C-18.32740479 551.20081787 -19.45412598 550.56716309 -20.61499023 549.91430664 C-27.40586102 546.08446702 -34.16053105 542.20111665 -40.8659668 538.22387695 C-47.17792885 534.48142603 -53.53009961 530.81043787 -59.88818359 527.14697266 C-60.99540771 526.50896729 -62.10263184 525.87096191 -63.2434082 525.21362305 C-65.51405427 523.90557789 -67.78480717 522.59771818 -70.05566406 521.29003906 C-75.52238339 518.14115212 -80.98643246 514.98764002 -86.45068359 511.83447266 C-88.6173367 510.58444916 -90.78400339 509.33444919 -92.95068359 508.08447266 C-123.28401693 490.58447266 -153.61735026 473.08447266 -183.95068359 455.58447266 C-185.02406982 454.96523926 -186.09745605 454.34600586 -187.20336914 453.70800781 C-189.36118162 452.46305984 -191.51889712 451.21794376 -193.67651367 449.97265625 C-199.22784952 446.76894615 -204.78104901 443.56853635 -210.33740234 440.37353516 C-211.47628906 439.71804688 -212.61517578 439.06255859 -213.78857422 438.38720703 C-215.92855847 437.15562426 -218.06912585 435.9250538 -220.21044922 434.69580078 C-222.16746503 433.56895694 -224.10983495 432.41616386 -226.03418636 431.23440266 C-228.55233473 429.83404864 -230.60592566 428.87868329 -233.26788425 427.94591808 C-237.7269545 426.18803558 -241.50081274 424.20795349 -244.45068359 420.33447266 C-247.4553134 411.99879605 -246.59452247 402.46147547 -246.53442383 393.73999023 C-246.5613211 390.99268157 -246.61034081 388.2458587 -246.65788269 385.49884033 C-246.75909103 378.81925424 -246.77830732 372.14187585 -246.76591825 365.46162603 C-246.75662841 360.02834563 -246.77336497 354.59574399 -246.80836678 349.16257286 C-246.81827896 347.59464875 -246.82818972 346.02672463 -246.83809906 344.45880049 C-246.84550957 343.28799946 -246.84550957 343.28799946 -246.85306979 342.09354588 C-246.94232895 327.34479011 -246.93279619 312.59729608 -246.89400727 297.8484055 C-246.86179283 284.37714004 -246.95793859 270.91035236 -247.11438333 257.44007257 C-247.27401468 243.58762862 -247.34396397 229.73731573 -247.3188625 215.88393897 C-247.30642072 208.11425108 -247.32918199 200.34857164 -247.44668388 192.57966042 C-247.5458607 185.96246178 -247.56010954 179.35156145 -247.46741461 172.73416183 C-247.42241609 169.35753807 -247.42787942 166.00196339 -247.51348877 162.62471581 C-247.90223085 146.12584891 -247.90223085 146.12584891 -244.45068359 139.33447266 C-238.53204132 133.26342834 -230.93900723 129.81465837 -223.22886956 126.54153287 C-219.73261741 125.02248881 -216.58304506 123.19986434 -213.33349609 121.21337891 C-211.41457707 120.10729958 -209.49531487 119.00181538 -207.57568359 117.89697266 C-205.39077821 116.63787464 -203.20588267 115.37875955 -201.02099609 114.11962891 C-199.93592773 113.49459473 -198.85085937 112.86956055 -197.73291016 112.22558594 C-192.30408421 109.0976712 -186.87746353 105.96593535 -181.45068359 102.83447266 C-174.92835085 99.07083346 -168.40554597 95.30802644 -161.88037109 91.54931641 C-151.4286216 85.52699937 -140.98768811 79.48777928 -130.57568359 73.39697266 C-121.30504429 67.97488567 -111.99131661 62.63123254 -102.66021729 57.3142395 C-94.5636043 52.69963188 -86.49284611 48.04353841 -78.45068359 43.33447266 C-69.85550908 38.30257381 -61.22749092 33.33070691 -52.57568359 28.39697266 C-43.14800308 23.02012368 -33.72850268 17.62970671 -24.32568359 12.20947266 C-23.27783691 11.60627197 -22.22999023 11.00307129 -21.15039062 10.3815918 C-20.15378418 9.80658936 -19.15717773 9.23158691 -18.13037109 8.63916016 C-17.17743164 8.09356445 -16.22449219 7.54796875 -15.24267578 6.98583984 C-13.35648271 5.87022162 -11.49744886 4.70756451 -9.66650391 3.50341797 C-8.35697754 2.65021973 -8.35697754 2.65021973 -7.02099609 1.77978516 C-6.25803223 1.26174316 -5.49506836 0.74370117 -4.70898438 0.20996094 C-2.45068359 -0.66552734 -2.45068359 -0.66552734 0 0 Z M-7.41943359 25.08837891 C-8.96824219 25.9875 -8.96824219 25.9875 -10.54833984 26.90478516 C-12.2325 27.89091797 -12.2325 27.89091797 -13.95068359 28.89697266 C-15.12619953 29.58102254 -16.30198506 30.26460932 -17.47802734 30.94775391 C-19.92439286 32.36929398 -22.36957822 33.79283348 -24.81396484 35.21777344 C-30.34873353 38.4420442 -35.90049691 41.63684296 -41.45068359 44.83447266 C-43.6174317 46.08433149 -45.78409807 47.33433202 -47.95068359 48.58447266 C-60.95068359 56.08447266 -60.95068359 56.08447266 -64.20117188 57.9597168 C-66.3662543 59.20882784 -68.53129342 60.45801395 -70.69628906 61.70727539 C-76.13684065 64.84649575 -81.57815575 67.98437828 -87.02099609 71.11962891 C-97.51300531 77.16502469 -107.99543678 83.22568277 -118.45068359 89.33447266 C-136.35575236 99.79405869 -154.32895602 110.1336107 -172.34277344 120.4045105 C-181.57529099 125.67015076 -190.77280425 130.9933987 -199.93554688 136.37963867 C-208.0519128 141.13987327 -216.24410843 145.71827412 -224.45068359 150.33447266 C-224.45068359 235.80447266 -224.45068359 321.27447266 -224.45068359 409.33447266 C-215.54068359 414.28447266 -215.54068359 414.28447266 -206.45068359 419.33447266 C-202.64913149 421.528624 -198.85648095 423.73067989 -195.07568359 425.95947266 C-186.27427333 431.12017621 -177.43925117 436.21895935 -168.57568359 441.27197266 C-150.1569091 451.77598948 -131.79196081 462.37087373 -113.484375 473.06762695 C-102.92421275 479.23392396 -92.32925814 485.33952305 -81.73291016 491.44335938 C-75.22197103 495.1947529 -68.71405165 498.9513826 -62.20556641 502.70703125 C-56.76483023 505.84629512 -51.32336882 508.98428762 -45.88037109 512.11962891 C-44.7958667 512.74490479 -43.7113623 513.37018066 -42.59399414 514.0144043 C-40.43269054 515.25932938 -38.27011169 516.50204341 -36.10620117 517.74243164 C-30.58155987 520.91637656 -25.09741638 524.14176237 -19.65771484 527.45947266 C-18.56281738 528.12003662 -17.46791992 528.78060059 -16.33984375 529.46118164 C-14.25087302 530.72421724 -12.17059387 532.00177456 -10.10058594 533.2956543 C-9.16811035 533.85631592 -8.23563477 534.41697754 -7.27490234 534.99462891 C-6.46110107 535.49615479 -5.6472998 535.99768066 -4.80883789 536.5144043 C-2.44185376 537.58801376 -2.44185376 537.58801376 0.05859375 536.63989258 C0.88053223 536.209104 1.7024707 535.77831543 2.54931641 535.33447266 C3.30768799 534.93905273 4.06605957 534.54363281 4.84741211 534.13623047 C5.63204834 533.69118164 6.41668457 533.24613281 7.22509766 532.78759766 C8.12268799 532.27986816 9.02027832 531.77213867 9.94506836 531.24902344 C11.38885864 530.4250708 11.38885864 530.4250708 12.86181641 529.58447266 C13.87655029 529.00810059 14.89128418 528.43172852 15.93676758 527.83789062 C25.1274042 522.60406864 34.26119855 517.27423223 43.38916016 511.93212891 C52.98873879 506.3176859 62.63067592 500.77646946 72.26708984 495.22558594 C77.69591583 492.09767117 83.12250922 488.96588818 88.54931641 485.83447266 C90.71597223 484.58445387 92.8826389 483.33445387 95.04931641 482.08447266 C96.12181641 481.46572266 97.19431641 480.84697266 98.29931641 480.20947266 C118.88264974 468.33447266 139.46598307 456.45947266 160.04931641 444.58447266 C161.12262207 443.96523926 162.19592773 443.34600586 163.30175781 442.70800781 C165.46022138 441.46277781 167.61874964 440.21765993 169.77734375 438.97265625 C175.32006382 435.77560929 180.86151649 432.57639671 186.40087891 429.37353516 C187.53525391 428.71804688 188.66962891 428.06255859 189.83837891 427.38720703 C191.96641319 426.1574823 194.09405826 424.92708362 196.22119141 423.69580078 C204.62741126 418.8397273 213.08607644 414.09504514 221.54931641 409.33447266 C221.54931641 323.86447266 221.54931641 238.39447266 221.54931641 150.33447266 C213.29931641 145.71447266 205.04931641 141.09447266 196.54931641 136.33447266 C183.87156959 128.95588985 183.87156959 128.95588985 178.77978516 125.96728516 C172.06470584 122.03969843 165.30879012 118.18486566 158.54931641 114.33447266 C148.87432031 108.82216091 139.23649064 103.25022441 129.62744141 97.62353516 C121.96357666 93.14281 114.26245806 88.72953041 106.54931641 84.33447266 C96.82807135 78.79461333 87.14036772 73.20072334 77.48242188 67.55102539 C70.22719915 63.30829993 62.95578322 59.09449211 55.67431641 54.89697266 C54.60044678 54.27790039 53.52657715 53.65882812 52.42016602 53.02099609 C47.99581145 50.47124469 43.57079054 47.92265185 39.14550781 45.37451172 C35.75892968 43.42426815 32.37282057 41.47321254 28.98681641 39.52197266 C27.90867676 38.90128906 26.83053711 38.28060547 25.71972656 37.64111328 C20.86720493 34.84350506 16.0237797 32.03336413 11.20947266 29.17041016 C10.4129126 28.69708252 9.61635254 28.22375488 8.7956543 27.73608398 C7.34317701 26.87021746 5.89297523 26.0005173 4.44555664 25.1262207 C-0.92231572 21.92291333 -2.09850888 21.98341093 -7.41943359 25.08837891 Z " fill="#020202" transform="translate(288.45068359375,6.66552734375)"/>
<path d="M0 0 C2.47221846 1.19550454 4.87367738 2.44282379 7.26220703 3.79760742 C8.15979736 4.30533691 9.0573877 4.81306641 9.98217773 5.33618164 C10.94470459 5.8854834 11.90723145 6.43478516 12.89892578 7.00073242 C14.42102661 7.86529053 14.42102661 7.86529053 15.97387695 8.74731445 C25.16451358 13.98113643 34.29830792 19.31097284 43.42626953 24.65307617 C53.02584816 30.26751918 62.6677853 35.80873562 72.30419922 41.35961914 C77.7330252 44.4875339 83.15961859 47.6193169 88.58642578 50.75073242 C90.75308161 52.00075121 92.91974828 53.25075121 95.08642578 54.50073242 C99.41975911 57.00073242 103.75309245 59.50073242 108.08642578 62.00073242 C109.15908691 62.61956299 110.23174805 63.23839355 111.33691406 63.87597656 C113.50199649 65.1250876 115.6670356 66.37427371 117.83203125 67.62353516 C123.27258284 70.76275552 128.71389794 73.90063805 134.15673828 77.03588867 C145.78302961 83.73505282 157.39825107 90.45156108 168.96972656 97.24511719 C177.12164564 102.01809729 185.34822426 106.61674406 193.58642578 111.25073242 C193.58642578 186.16073242 193.58642578 261.07073242 193.58642578 338.25073242 C185.33642578 342.87073242 177.08642578 347.49073242 168.58642578 352.25073242 C159.62328388 357.4560359 159.62328388 357.4560359 150.67626953 362.68823242 C144.37072159 366.38286552 138.04348142 370.03925924 131.71142578 373.68823242 C130.63127197 374.31076904 129.55111816 374.93330566 128.43823242 375.57470703 C126.24846244 376.83650068 124.05860223 378.09813776 121.86865234 379.35961914 C116.4398264 382.48753388 111.01320571 385.61926973 105.58642578 388.75073242 C99.06409303 392.51437162 92.54128816 396.27717864 86.01611328 400.03588867 C74.53847516 406.64919444 63.07676138 413.28824489 51.64038086 419.97265625 C43.06497974 424.98115385 34.4691621 429.95401384 25.85131836 434.88916016 C20.97140347 437.68929384 16.1193743 440.51308398 11.34423828 443.48901367 C10.56234131 443.97080078 9.78044434 444.45258789 8.97485352 444.94897461 C7.55575586 445.82861051 6.14554038 446.72282195 4.74682617 447.63452148 C2.87939453 448.78588867 2.87939453 448.78588867 -0.41357422 450.25073242 C-4.12028646 449.11440431 -7.40132687 447.23678018 -10.77294922 445.34448242 C-12.3090686 444.48415405 -12.3090686 444.48415405 -13.8762207 443.60644531 C-14.96104736 442.99406006 -16.04587402 442.3816748 -17.16357422 441.75073242 C-18.29029541 441.11707764 -19.4170166 440.48342285 -20.57788086 439.83056641 C-27.36731299 436.00153814 -34.12104736 432.11976574 -40.82446289 428.14233398 C-47.17743996 424.37458052 -53.57474295 420.6856247 -59.97607422 417.00073242 C-68.43028395 412.13306447 -76.86883999 407.24027883 -85.28857422 402.31323242 C-93.96611319 397.23784013 -102.67963131 392.22814395 -111.41357422 387.25073242 C-121.1310209 381.71282913 -130.81498458 376.1210143 -140.46948242 370.47387695 C-147.83335752 366.16793919 -155.21219973 361.88862904 -162.60107422 357.62573242 C-163.57254395 357.06490967 -164.54401367 356.50408691 -165.54492188 355.92626953 C-175.81734486 350.00415275 -186.11838527 344.13369754 -196.41357422 338.25073242 C-196.41357422 263.34073242 -196.41357422 188.43073242 -196.41357422 111.25073242 C-188.16357422 106.63073242 -179.91357422 102.01073242 -171.41357422 97.25073242 C-162.45418495 92.04762356 -162.45418495 92.04762356 -153.51123047 86.81713867 C-147.16310807 83.0973833 -140.78995309 79.42177993 -134.41357422 75.75073242 C-126.06547663 70.94241164 -117.73114106 66.11167482 -109.41357422 61.25073242 C-97.86634936 54.50360128 -86.28455303 47.81733872 -74.69580078 41.1418457 C-68.18997812 37.39340013 -61.68713339 33.63979061 -55.18383789 29.88696289 C-49.65620141 26.69744447 -44.12758041 23.50965421 -38.59716797 20.32495117 C-37.47656982 19.67905029 -36.35597168 19.03314941 -35.20141602 18.36767578 C-32.99452261 17.09673804 -30.78638096 15.82796495 -28.5769043 14.56152344 C-23.73387926 11.77904357 -18.91979933 8.97053834 -14.17919922 6.01635742 C-13.00466187 5.29283081 -13.00466187 5.29283081 -11.80639648 4.5546875 C-10.38560828 3.67434303 -8.97374046 2.77935131 -7.57348633 1.86669922 C-3.02363657 -0.93865473 -3.02363657 -0.93865473 0 0 Z M-7.45263672 25.03979492 C-9.01691406 25.94665039 -9.01691406 25.94665039 -10.61279297 26.87182617 C-11.74330078 27.53311523 -12.87380859 28.1944043 -14.03857422 28.87573242 C-15.21934652 29.56230416 -16.40033911 30.24849716 -17.58154297 30.93432617 C-20.61490767 32.69703612 -23.64523756 34.46488714 -26.67443848 36.23474121 C-29.30276859 37.77019369 -31.93247952 39.30327725 -34.56201172 40.83666992 C-37.49965998 42.55029807 -40.43701193 44.26442504 -43.37353516 45.97998047 C-53.93553387 52.14805643 -64.53284931 58.25454413 -75.13134766 64.35961914 C-80.5601736 67.48753388 -85.98679429 70.61926973 -91.41357422 73.75073242 C-97.93590697 77.51437162 -104.45871184 81.27717864 -110.98388672 85.03588867 C-121.55645075 91.12745971 -132.12174273 97.23109803 -142.66357422 103.37573242 C-143.52354004 103.87661377 -144.38350586 104.37749512 -145.26953125 104.89355469 C-147.0841998 105.9528054 -148.87264861 107.05796437 -150.63551331 108.20135498 C-153.5839622 109.96823238 -156.47133723 110.90432403 -159.76277161 111.87260437 C-166.64536116 114.29086595 -172.14647082 117.17328746 -176.41357422 123.25073242 C-181.17837925 136.01933163 -179.42632622 151.86900787 -179.20407748 165.23114371 C-179.12939165 170.85460193 -179.16680111 176.47750903 -179.18751526 182.10127258 C-179.20462859 191.54012457 -179.13277044 200.97512229 -179.00708008 210.41308594 C-178.86301699 221.30957033 -178.85797841 232.19939761 -178.92767471 243.096461 C-178.9918378 253.60356658 -178.95965484 264.10825924 -178.88313484 274.61521339 C-178.85219562 279.07609569 -178.85434774 283.53512508 -178.88342094 287.99600792 C-178.91316976 293.25290298 -178.85816618 298.50241782 -178.73885918 303.75797653 C-178.708513 305.68055386 -178.70667981 307.60383534 -178.73614883 309.52642632 C-179.12079261 319.49265093 -179.12079261 319.49265093 -174.74265218 327.9866488 C-170.6540825 331.11552525 -166.20967678 333.30013124 -161.49552834 335.32450545 C-158.48309448 336.66468748 -155.73375673 338.31713023 -152.90966797 340.01635742 C-150.89047664 341.17840661 -148.87094185 342.33985917 -146.85107422 343.50073242 C-138.35667484 348.39159784 -129.87591471 353.30460766 -121.41357422 358.25073242 C-109.86638696 364.99792735 -98.28455254 371.68412641 -86.69580078 378.35961914 C-81.2669748 381.4875339 -75.84038141 384.6193169 -70.41357422 387.75073242 C-68.24691839 389.00075121 -66.08025172 390.25075121 -63.91357422 391.50073242 C-50.91357422 399.00073242 -50.91357422 399.00073242 -47.65844727 400.87890625 C-45.50912007 402.11875966 -43.35954641 403.35818592 -41.2097168 404.59716797 C-36.13522933 407.52237005 -31.06335805 410.45184965 -26.00021362 413.39663696 C-23.61041754 414.78621872 -21.21920586 416.17335414 -18.82788086 417.56030273 C-17.14216833 418.53936495 -15.45850835 419.52195848 -13.77490234 420.50463867 C-12.2405957 421.3940918 -12.2405957 421.3940918 -10.67529297 422.30151367 C-9.32890747 423.08522339 -9.32890747 423.08522339 -7.95532227 423.88476562 C-4.30886139 425.87274606 -4.30886139 425.87274606 -0.41357422 427.25073242 C2.04634043 426.49039691 2.04634043 426.49039691 4.41064453 424.91088867 C5.34312012 424.35022705 6.2755957 423.78956543 7.23632812 423.21191406 C8.23873535 422.58534912 9.24114258 421.95878418 10.27392578 421.31323242 C12.44646177 419.99967151 14.61966144 418.68720778 16.79345703 417.37573242 C17.91574707 416.69124023 19.03803711 416.00674805 20.19433594 415.30151367 C25.56751538 412.05301019 31.01431606 408.93560312 36.46142578 405.81323242 C38.64658126 404.5545685 40.8314757 403.29545128 43.01611328 402.03588867 C44.10118164 401.41085449 45.18625 400.78582031 46.30419922 400.1418457 C51.73302516 397.01393096 57.15964585 393.88219511 62.58642578 390.75073242 C69.10875853 386.98709323 75.6315634 383.2242862 82.15673828 379.46557617 C93.63807531 372.85013912 105.10367679 366.2092746 116.54345703 359.5222168 C124.88466194 354.65012011 133.25023333 349.82092448 141.62939453 345.0144043 C143.63654979 343.86009169 145.61785622 342.65983734 147.57292175 341.41934204 C150.62128281 339.61448567 153.58236966 338.60350158 156.97285461 337.59664917 C163.83068405 335.17630904 169.31238372 332.2918563 173.58642578 326.25073242 C178.42225602 313.55837154 176.83330573 297.78770708 176.70624471 284.46791053 C176.67650978 279.99954397 176.71562955 275.53283198 176.75447172 271.06461746 C176.84519689 260.51422445 176.82375446 249.96821416 176.72924805 239.41796875 C176.63378303 228.56698032 176.7163724 217.72786556 176.88901526 206.87809724 C177.03202953 197.53154066 177.06911224 188.18865266 177.02156252 178.84112388 C176.99391852 173.27140657 177.00374561 167.7086919 177.11357307 162.13983727 C178.65299306 139.81127122 178.65299306 139.81127122 170.96180344 119.8784523 C164.97538769 114.29065197 157.64529963 111.2645794 150.00510979 108.55169106 C144.62464912 106.50419069 139.8262631 103.57063762 134.89892578 100.62573242 C133.01898322 99.56334617 131.13650102 98.50542983 129.25048828 97.45385742 C122.38033272 93.58448681 115.57750159 89.6019366 108.77270508 85.61914062 C98.16549589 79.4122759 87.51792777 73.27616993 76.86865234 67.1418457 C70.3591299 63.39126843 63.85247798 59.63571253 57.34570312 55.88037109 C51.88107915 52.7268808 46.41494676 49.57606202 40.94580078 46.43041992 C38.74258913 45.16234129 36.53946341 43.89411336 34.33642578 42.62573242 C33.27101563 42.01270264 32.20560547 41.39967285 31.10791016 40.76806641 C25.76243169 37.68542542 20.43462619 34.57674879 15.13330078 31.41870117 C14.11397461 30.81171387 13.09464844 30.20472656 12.04443359 29.5793457 C10.11423034 28.4268952 8.18637727 27.27049664 6.26123047 26.10961914 C5.40948242 25.60060059 4.55773437 25.09158203 3.68017578 24.56713867 C2.5615918 23.8934021 2.5615918 23.8934021 1.42041016 23.20605469 C-2.23161155 21.30371697 -4.1243178 23.10141256 -7.45263672 25.03979492 Z " fill="#020101" transform="translate(288.41357421875,61.749267578125)"/>
<path d="M0 0 C3.91912842 1.81259445 6.58686527 4.34608264 9.5703125 7.41015625 C10.09261444 7.93765976 10.61491638 8.46516327 11.15304565 9.00865173 C12.81520334 10.6885713 14.47049805 12.37504272 16.125 14.0625 C17.78750973 15.75263016 19.45145954 17.4412772 21.11837769 19.12705994 C22.1539722 20.17490971 23.18688183 21.22542114 24.21682739 22.27882385 C26.84590314 24.98361429 26.84590314 24.98361429 30 27 C30 27.66 30 28.32 30 29 C29.34 29 28.68 29 28 29 C27.75136766 29.57353305 27.50273533 30.1470661 27.24656868 30.73797894 C25.81142098 33.34219512 24.15856376 35.0902709 22.05490112 37.19233704 C20.81861717 38.43491272 20.81861717 38.43491272 19.55735779 39.70259094 C18.65139359 40.60293564 17.74542938 41.50328033 16.81201172 42.4309082 C15.84891739 43.39507588 14.88625627 44.35967645 13.92399597 45.32467651 C11.31045806 47.94306046 8.69071339 50.55515229 6.06968451 53.16603494 C3.32214659 55.9047762 0.57989527 58.64880151 -2.16305542 61.39213562 C-6.77489727 66.00304078 -11.39059458 70.6100576 -16.00878906 75.21459961 C-21.33337695 80.52350389 -26.65276293 85.83757397 -31.96914685 91.15469295 C-37.64250624 96.82873061 -43.31967868 102.49894145 -48.99795675 108.16805625 C-50.62612387 109.79410134 -52.2535878 111.42084736 -53.88089371 113.04775429 C-56.45090854 115.6167564 -59.02348794 118.18316422 -61.59798241 120.74767685 C-62.98167149 122.1271015 -64.36297809 123.50891474 -65.7441864 124.89082336 C-70.12835623 129.25276251 -74.57836351 133.46028821 -79.26745415 137.49260426 C-81.5577716 139.48528732 -83.71240445 141.59250089 -85.85546875 143.74194336 C-86.71575684 144.60230698 -87.57604492 145.46267059 -88.46240234 146.34910583 C-89.36168457 147.25354935 -90.2609668 148.15799286 -91.1875 149.08984375 C-92.13991612 150.04412993 -93.09255695 150.99819188 -94.04541016 151.95204163 C-96.52666925 154.4370797 -99.00490791 156.92510796 -101.48248291 159.41381836 C-104.02162485 161.96327496 -106.56367646 164.50982688 -109.10546875 167.05664062 C-114.07312882 172.03495631 -119.03759686 177.01644371 -124 182 C-126.91888275 180.6811876 -128.98472114 179.26237277 -131.23892212 176.99485779 C-131.8557637 176.37932037 -132.47260529 175.76378296 -133.10813904 175.1295929 C-133.77321976 174.45575058 -134.43830048 173.78190826 -135.12353516 173.08764648 C-135.83291733 172.37695007 -136.5422995 171.66625366 -137.2731781 170.934021 C-139.61643547 168.58427335 -141.95264138 166.22763726 -144.2890625 163.87109375 C-145.91472368 162.23916294 -147.54090057 160.6077457 -149.16757202 158.9768219 C-153.448674 154.68241331 -157.72417457 150.38247444 -161.99810791 146.08093262 C-168.84541464 139.19051104 -175.69945259 132.306801 -182.5567131 125.4262867 C-184.95552859 123.01721757 -187.35091945 120.60478085 -189.7460022 118.19200134 C-191.20897167 116.72220665 -192.67204961 115.25251991 -194.13525391 113.78295898 C-194.80438309 113.10709244 -195.47351227 112.43122589 -196.16291809 111.73487854 C-196.77412003 111.12216095 -197.38532196 110.50944336 -198.01504517 109.87815857 C-198.54633341 109.3433509 -199.07762165 108.80854322 -199.62500954 108.25752926 C-200.99723971 106.88736934 -200.99723971 106.88736934 -203 106 C-203 105.34 -203 104.68 -203 104 C-201.61474609 102.64038086 -201.61474609 102.64038086 -199.6484375 101.02734375 C-193.34407172 95.66904961 -187.67185624 89.68127774 -181.89453125 83.76757812 C-181.03472656 82.89681641 -180.17492187 82.02605469 -179.2890625 81.12890625 C-178.51256348 80.33556885 -177.73606445 79.54223145 -176.93603516 78.72485352 C-175 77 -175 77 -173 77 C-171.60508728 78.41491699 -171.60508728 78.41491699 -169.96459961 80.40429688 C-165.74110857 85.36748615 -161.18674078 89.93934446 -156.56640625 94.53125 C-155.68846909 95.40777222 -154.81053192 96.28429443 -153.9059906 97.18737793 C-151.12718504 99.96062796 -148.34490603 102.73036282 -145.5625 105.5 C-143.66680135 107.39010805 -141.77190217 109.28101518 -139.87695312 111.171875 C-135.25394811 115.78391004 -130.62809343 120.39307141 -126 125 C-119.35695653 119.54007364 -113.34469322 113.4787624 -107.28149414 107.39501953 C-106.10827773 106.22152066 -104.93484032 105.04824271 -103.76119995 103.87516785 C-100.59211768 100.70637128 -97.42611779 97.53451144 -94.26068044 94.36207438 C-90.94596626 91.04108877 -87.62840057 87.72295418 -84.31114197 84.4045105 C-78.03719801 78.12746438 -71.76580652 71.84787456 -65.4953379 65.56735694 C-58.35340048 58.41422371 -51.20860719 51.26394591 -44.06357777 44.11390138 C-29.37254838 29.41243284 -14.68509225 14.70739892 0 0 Z " fill="#FFFEFD" transform="translate(385,185)"/>
</svg>
